<svg xmlns="http://www.w3.org/2000/svg" xmlns:xlink="http://www.w3.org/1999/xlink" width="3780" zoomAndPan="magnify" viewBox="0 0 2835 1417.499962" height="1890" preserveAspectRatio="xMidYMid meet" version="1.2"><defs><clipPath id="60bbedc819"><path d="M 0.5 0 L 2834.5 0 L 2834.5 1417 L 0.5 1417 Z M 0.5 0 "/></clipPath></defs><g id="b4eba80617"><g clip-rule="nonzero" clip-path="url(#60bbedc819)"><path style=" stroke:none;fill-rule:nonzero;fill:#ffffff;fill-opacity:1;" d="M 0.5 0 L 2834.5 0 L 2834.5 1417 L 0.5 1417 Z M 0.5 0 "/><path style=" stroke:none;fill-rule:nonzero;fill:#131322;fill-opacity:1;" d="M 0.5 0 L 2834.855469 0 L 2834.855469 1417.175781 L 0.5 1417.175781 Z M 0.5 0 "/></g><g style="fill:#ffd84f;fill-opacity:0.302;"><g transform="translate(346.146837, 970.893027)"><path style="stroke:none" d="M 69.796875 -386.5625 L 129.328125 -387.109375 L 109.265625 -169.15625 C 108.265625 -158.488281 107.164062 -148.28125 105.96875 -138.53125 C 104.769531 -128.78125 103.835938 -120.039062 103.171875 -112.3125 C 102.160156 -103.113281 101.320312 -94.46875 100.65625 -86.375 L 102.3125 -86.390625 L 176.171875 -387.53125 L 236.8125 -388.09375 L 207.046875 -87.359375 L 208.703125 -87.375 C 208.703125 -87.375 209.226562 -89.859375 210.28125 -94.828125 C 211.332031 -99.804688 212.742188 -105.976562 214.515625 -113.34375 C 216.285156 -120.707031 218.234375 -128.71875 220.359375 -137.375 C 222.484375 -146.03125 224.613281 -154.226562 226.75 -161.96875 L 283.671875 -388.515625 L 345.421875 -389.078125 L 234.28125 -2.140625 L 159.328125 -1.453125 L 177.546875 -178.046875 C 178.203125 -186.867188 179.117188 -196.890625 180.296875 -208.109375 C 181.484375 -219.335938 182.765625 -229.914062 184.140625 -239.84375 C 185.503906 -251.613281 186.867188 -263.207031 188.234375 -274.625 L 186.578125 -274.609375 C 183.742188 -263.179688 180.910156 -251.578125 178.078125 -239.796875 C 175.597656 -229.847656 173.125 -219.253906 170.65625 -208.015625 C 168.195312 -196.785156 165.90625 -186.753906 163.78125 -177.921875 L 120.734375 -1.109375 L 44.109375 -0.40625 Z M 69.796875 -386.5625 "/></g></g><g style="fill:#ffd84f;fill-opacity:0.302;"><g transform="translate(621.781729, 968.369367)"><path style="stroke:none" d="M 86.328125 -386.71875 L 204.84375 -387.796875 L 194.90625 -329.8125 L 137.03125 -329.28125 L 118.734375 -218.859375 L 171.09375 -219.328125 L 161.71875 -161.375 L 109.34375 -160.890625 L 82.6875 -0.75 L 22.046875 -0.203125 Z M 86.328125 -386.71875 "/></g></g><g style="fill:#ffd84f;fill-opacity:0.302;"><g transform="translate(756.842749, 967.132775)"><path style="stroke:none" d=""/></g></g><g style="fill:#ffd84f;fill-opacity:0.302;"><g transform="translate(822.994952, 966.527098)"><path style="stroke:none" d="M 86.328125 -386.71875 L 150.828125 -387.296875 C 173.972656 -387.515625 192.675781 -381.53125 206.9375 -369.34375 C 221.207031 -357.164062 228.453125 -338.765625 228.671875 -314.140625 C 228.710938 -309.734375 228.476562 -305.046875 227.96875 -300.078125 C 227.46875 -295.109375 226.867188 -290.046875 226.171875 -284.890625 L 223.5625 -269.421875 C 221.125 -255.441406 217.554688 -243.832031 212.859375 -234.59375 C 208.171875 -225.363281 203.460938 -217.972656 198.734375 -212.421875 C 193.273438 -205.753906 187.4375 -200.734375 181.21875 -197.359375 C 184.925781 -194.085938 188.457031 -189.894531 191.8125 -184.78125 C 194.800781 -180.40625 197.425781 -174.738281 199.6875 -167.78125 C 201.957031 -160.820312 203.132812 -152.5625 203.21875 -143 C 203.289062 -135.65625 202.625 -128.300781 201.21875 -120.9375 L 195.984375 -90 C 190.035156 -56.875 179.128906 -33.804688 163.265625 -20.796875 C 147.410156 -7.785156 127.71875 -1.171875 104.1875 -0.953125 L 22.046875 -0.203125 Z M 105.34375 -56.09375 C 112.695312 -56.15625 119.015625 -58.785156 124.296875 -63.984375 C 129.578125 -69.179688 133.4375 -78.773438 135.875 -92.765625 L 141.640625 -126.453125 C 142.347656 -129.765625 142.691406 -132.335938 142.671875 -134.171875 C 142.660156 -136.015625 142.644531 -138.035156 142.625 -140.234375 C 142.539062 -149.054688 140.640625 -155.65625 136.921875 -160.03125 C 133.203125 -164.414062 128.585938 -166.582031 123.078125 -166.53125 L 109.84375 -166.40625 L 91.5625 -55.96875 Z M 130.8125 -224.484375 C 138.164062 -224.546875 144.484375 -227.175781 149.765625 -232.375 C 155.046875 -237.570312 158.910156 -247.160156 161.359375 -261.140625 L 166.59375 -292.0625 C 167.289062 -295.382812 167.628906 -297.960938 167.609375 -299.796875 C 167.597656 -301.640625 167.582031 -303.660156 167.5625 -305.859375 C 167.476562 -314.679688 165.578125 -321.28125 161.859375 -325.65625 C 158.148438 -330.03125 153.539062 -332.195312 148.03125 -332.15625 L 137.546875 -332.046875 L 119.796875 -224.375 Z M 130.8125 -224.484375 "/></g></g><g style="fill:#ffd84f;fill-opacity:0.302;"><g transform="translate(1004.91392, 964.861483)"><path style="stroke:none" d="M 119.40625 -387.015625 L 202.09375 -387.765625 L 184.671875 -1.6875 L 125.140625 -1.140625 L 129.953125 -78.390625 L 84.203125 -77.96875 L 64.5 -0.59375 L 2.75 -0.03125 Z M 134.390625 -136.296875 L 142.59375 -263.171875 C 143.582031 -275.679688 144.671875 -286.8125 145.859375 -296.5625 C 147.054688 -306.3125 148.351562 -315.421875 149.75 -323.890625 L 147.546875 -323.875 C 145.785156 -315.40625 143.664062 -306.285156 141.1875 -296.515625 C 138.707031 -286.753906 135.867188 -275.609375 132.671875 -263.078125 L 99.65625 -135.984375 Z M 134.390625 -136.296875 "/></g></g><g style="fill:#ffd84f;fill-opacity:0.302;"><g transform="translate(1181.320216, 963.246341)"><path style="stroke:none" d="M 86.328125 -386.71875 L 150.828125 -387.296875 C 173.972656 -387.515625 192.675781 -381.53125 206.9375 -369.34375 C 221.207031 -357.164062 228.453125 -338.765625 228.671875 -314.140625 C 228.710938 -309.734375 228.476562 -305.046875 227.96875 -300.078125 C 227.46875 -295.109375 226.867188 -290.046875 226.171875 -284.890625 L 219.9375 -244.59375 C 216.425781 -225.8125 211.328125 -210.320312 204.640625 -198.125 C 197.960938 -185.9375 189.867188 -176.5 180.359375 -169.8125 L 187.421875 -1.71875 L 125.140625 -1.140625 C 124.660156 -13.265625 124.160156 -27.503906 123.640625 -43.859375 C 123.128906 -60.210938 122.710938 -76.015625 122.390625 -91.265625 C 122.066406 -106.515625 121.757812 -120.109375 121.46875 -132.046875 C 121.175781 -143.992188 121.015625 -151.804688 120.984375 -155.484375 L 108.296875 -155.359375 L 82.6875 -0.75 L 22.046875 -0.203125 Z M 128.734375 -210.6875 C 136.085938 -210.75 142.40625 -213.375 147.6875 -218.5625 C 152.96875 -223.75 156.832031 -233.34375 159.28125 -247.34375 L 166.59375 -292.0625 C 167.289062 -295.382812 167.628906 -297.960938 167.609375 -299.796875 C 167.597656 -301.640625 167.582031 -303.660156 167.5625 -305.859375 C 167.476562 -314.679688 165.578125 -321.28125 161.859375 -325.65625 C 158.148438 -330.03125 153.539062 -332.195312 148.03125 -332.15625 L 137.546875 -332.046875 L 117.703125 -210.578125 Z M 128.734375 -210.6875 "/></g></g><g style="fill:#ffd84f;fill-opacity:0.302;"><g transform="translate(1365.995445, 961.55549)"><path style="stroke:none" d="M 86.328125 -386.71875 L 150.828125 -387.296875 C 173.972656 -387.515625 192.675781 -381.53125 206.9375 -369.34375 C 221.207031 -357.164062 228.453125 -338.765625 228.671875 -314.140625 C 228.710938 -309.734375 228.476562 -305.046875 227.96875 -300.078125 C 227.46875 -295.109375 226.867188 -290.046875 226.171875 -284.890625 L 223.5625 -269.421875 C 221.125 -255.441406 217.554688 -243.832031 212.859375 -234.59375 C 208.171875 -225.363281 203.460938 -217.972656 198.734375 -212.421875 C 193.273438 -205.753906 187.4375 -200.734375 181.21875 -197.359375 C 184.925781 -194.085938 188.457031 -189.894531 191.8125 -184.78125 C 194.800781 -180.40625 197.425781 -174.738281 199.6875 -167.78125 C 201.957031 -160.820312 203.132812 -152.5625 203.21875 -143 C 203.289062 -135.65625 202.625 -128.300781 201.21875 -120.9375 L 195.984375 -90 C 190.035156 -56.875 179.128906 -33.804688 163.265625 -20.796875 C 147.410156 -7.785156 127.71875 -1.171875 104.1875 -0.953125 L 22.046875 -0.203125 Z M 105.34375 -56.09375 C 112.695312 -56.15625 119.015625 -58.785156 124.296875 -63.984375 C 129.578125 -69.179688 133.4375 -78.773438 135.875 -92.765625 L 141.640625 -126.453125 C 142.347656 -129.765625 142.691406 -132.335938 142.671875 -134.171875 C 142.660156 -136.015625 142.644531 -138.035156 142.625 -140.234375 C 142.539062 -149.054688 140.640625 -155.65625 136.921875 -160.03125 C 133.203125 -164.414062 128.585938 -166.582031 123.078125 -166.53125 L 109.84375 -166.40625 L 91.5625 -55.96875 Z M 130.8125 -224.484375 C 138.164062 -224.546875 144.484375 -227.175781 149.765625 -232.375 C 155.046875 -237.570312 158.910156 -247.160156 161.359375 -261.140625 L 166.59375 -292.0625 C 167.289062 -295.382812 167.628906 -297.960938 167.609375 -299.796875 C 167.597656 -301.640625 167.582031 -303.660156 167.5625 -305.859375 C 167.476562 -314.679688 165.578125 -321.28125 161.859375 -325.65625 C 158.148438 -330.03125 153.539062 -332.195312 148.03125 -332.15625 L 137.546875 -332.046875 L 119.796875 -224.375 Z M 130.8125 -224.484375 "/></g></g><g style="fill:#ffd84f;fill-opacity:0.302;"><g transform="translate(1547.914413, 959.889876)"><path style="stroke:none" d="M 86.328125 -386.71875 L 204.84375 -387.796875 L 194.90625 -329.8125 L 137.03125 -329.28125 L 119.796875 -224.375 L 172.140625 -224.859375 L 162.21875 -166.890625 L 109.84375 -166.40625 L 92.09375 -58.734375 L 152.734375 -59.296875 L 143.34375 -1.3125 L 22.046875 -0.203125 Z M 86.328125 -386.71875 "/></g></g><g style="fill:#ffd84f;fill-opacity:0.302;"><g transform="translate(1691.244519, 958.577573)"><path style="stroke:none" d="M 119.40625 -387.015625 L 202.09375 -387.765625 L 184.671875 -1.6875 L 125.140625 -1.140625 L 129.953125 -78.390625 L 84.203125 -77.96875 L 64.5 -0.59375 L 2.75 -0.03125 Z M 134.390625 -136.296875 L 142.59375 -263.171875 C 143.582031 -275.679688 144.671875 -286.8125 145.859375 -296.5625 C 147.054688 -306.3125 148.351562 -315.421875 149.75 -323.890625 L 147.546875 -323.875 C 145.785156 -315.40625 143.664062 -306.285156 141.1875 -296.515625 C 138.707031 -286.753906 135.867188 -275.609375 132.671875 -263.078125 L 99.65625 -135.984375 Z M 134.390625 -136.296875 "/></g></g><g style="fill:#ffd84f;fill-opacity:0.302;"><g transform="translate(1867.650763, 956.962431)"><path style="stroke:none" d="M 86.328125 -386.71875 L 150.828125 -387.296875 C 173.972656 -387.515625 192.675781 -381.53125 206.9375 -369.34375 C 221.207031 -357.164062 228.453125 -338.765625 228.671875 -314.140625 C 228.710938 -309.734375 228.476562 -305.046875 227.96875 -300.078125 C 227.46875 -295.109375 226.867188 -290.046875 226.171875 -284.890625 L 219.9375 -244.59375 C 216.425781 -225.8125 211.328125 -210.320312 204.640625 -198.125 C 197.960938 -185.9375 189.867188 -176.5 180.359375 -169.8125 L 187.421875 -1.71875 L 125.140625 -1.140625 C 124.660156 -13.265625 124.160156 -27.503906 123.640625 -43.859375 C 123.128906 -60.210938 122.710938 -76.015625 122.390625 -91.265625 C 122.066406 -106.515625 121.757812 -120.109375 121.46875 -132.046875 C 121.175781 -143.992188 121.015625 -151.804688 120.984375 -155.484375 L 108.296875 -155.359375 L 82.6875 -0.75 L 22.046875 -0.203125 Z M 128.734375 -210.6875 C 136.085938 -210.75 142.40625 -213.375 147.6875 -218.5625 C 152.96875 -223.75 156.832031 -233.34375 159.28125 -247.34375 L 166.59375 -292.0625 C 167.289062 -295.382812 167.628906 -297.960938 167.609375 -299.796875 C 167.597656 -301.640625 167.582031 -303.660156 167.5625 -305.859375 C 167.476562 -314.679688 165.578125 -321.28125 161.859375 -325.65625 C 158.148438 -330.03125 153.539062 -332.195312 148.03125 -332.15625 L 137.546875 -332.046875 L 117.703125 -210.578125 Z M 128.734375 -210.6875 "/></g></g><g style="fill:#ffd84f;fill-opacity:0.302;"><g transform="translate(2052.325942, 955.271581)"><path style="stroke:none" d="M 86.328125 -386.71875 L 146.96875 -387.265625 L 82.6875 -0.75 L 22.046875 -0.203125 Z M 86.328125 -386.71875 "/></g></g><g style="fill:#ffd84f;fill-opacity:0.302;"><g transform="translate(2146.041737, 954.413537)"><path style="stroke:none" d="M 119.40625 -387.015625 L 202.09375 -387.765625 L 184.671875 -1.6875 L 125.140625 -1.140625 L 129.953125 -78.390625 L 84.203125 -77.96875 L 64.5 -0.59375 L 2.75 -0.03125 Z M 134.390625 -136.296875 L 142.59375 -263.171875 C 143.582031 -275.679688 144.671875 -286.8125 145.859375 -296.5625 C 147.054688 -306.3125 148.351562 -315.421875 149.75 -323.890625 L 147.546875 -323.875 C 145.785156 -315.40625 143.664062 -306.285156 141.1875 -296.515625 C 138.707031 -286.753906 135.867188 -275.609375 132.671875 -263.078125 L 99.65625 -135.984375 Z M 134.390625 -136.296875 "/></g></g><g style="fill:#ffd84f;fill-opacity:0.502;"><g transform="translate(385.723529, 948.479151)"><path style="stroke:none" d="M 69.796875 -386.5625 L 129.328125 -387.109375 L 109.265625 -169.15625 C 108.265625 -158.488281 107.164062 -148.28125 105.96875 -138.53125 C 104.769531 -128.78125 103.835938 -120.039062 103.171875 -112.3125 C 102.160156 -103.113281 101.320312 -94.46875 100.65625 -86.375 L 102.3125 -86.390625 L 176.171875 -387.53125 L 236.8125 -388.09375 L 207.046875 -87.359375 L 208.703125 -87.375 C 208.703125 -87.375 209.226562 -89.859375 210.28125 -94.828125 C 211.332031 -99.804688 212.742188 -105.976562 214.515625 -113.34375 C 216.285156 -120.707031 218.234375 -128.71875 220.359375 -137.375 C 222.484375 -146.03125 224.613281 -154.226562 226.75 -161.96875 L 283.671875 -388.515625 L 345.421875 -389.078125 L 234.28125 -2.140625 L 159.328125 -1.453125 L 177.546875 -178.046875 C 178.203125 -186.867188 179.117188 -196.890625 180.296875 -208.109375 C 181.484375 -219.335938 182.765625 -229.914062 184.140625 -239.84375 C 185.503906 -251.613281 186.867188 -263.207031 188.234375 -274.625 L 186.578125 -274.609375 C 183.742188 -263.179688 180.910156 -251.578125 178.078125 -239.796875 C 175.597656 -229.847656 173.125 -219.253906 170.65625 -208.015625 C 168.195312 -196.785156 165.90625 -186.753906 163.78125 -177.921875 L 120.734375 -1.109375 L 44.109375 -0.40625 Z M 69.796875 -386.5625 "/></g></g><g style="fill:#ffd84f;fill-opacity:0.502;"><g transform="translate(661.35842, 945.955491)"><path style="stroke:none" d="M 86.328125 -386.71875 L 204.84375 -387.796875 L 194.90625 -329.8125 L 137.03125 -329.28125 L 118.734375 -218.859375 L 171.09375 -219.328125 L 161.71875 -161.375 L 109.34375 -160.890625 L 82.6875 -0.75 L 22.046875 -0.203125 Z M 86.328125 -386.71875 "/></g></g><g style="fill:#ffd84f;fill-opacity:0.502;"><g transform="translate(796.419441, 944.718898)"><path style="stroke:none" d=""/></g></g><g style="fill:#ffd84f;fill-opacity:0.502;"><g transform="translate(862.571644, 944.113222)"><path style="stroke:none" d="M 86.328125 -386.71875 L 150.828125 -387.296875 C 173.972656 -387.515625 192.675781 -381.53125 206.9375 -369.34375 C 221.207031 -357.164062 228.453125 -338.765625 228.671875 -314.140625 C 228.710938 -309.734375 228.476562 -305.046875 227.96875 -300.078125 C 227.46875 -295.109375 226.867188 -290.046875 226.171875 -284.890625 L 223.5625 -269.421875 C 221.125 -255.441406 217.554688 -243.832031 212.859375 -234.59375 C 208.171875 -225.363281 203.460938 -217.972656 198.734375 -212.421875 C 193.273438 -205.753906 187.4375 -200.734375 181.21875 -197.359375 C 184.925781 -194.085938 188.457031 -189.894531 191.8125 -184.78125 C 194.800781 -180.40625 197.425781 -174.738281 199.6875 -167.78125 C 201.957031 -160.820312 203.132812 -152.5625 203.21875 -143 C 203.289062 -135.65625 202.625 -128.300781 201.21875 -120.9375 L 195.984375 -90 C 190.035156 -56.875 179.128906 -33.804688 163.265625 -20.796875 C 147.410156 -7.785156 127.71875 -1.171875 104.1875 -0.953125 L 22.046875 -0.203125 Z M 105.34375 -56.09375 C 112.695312 -56.15625 119.015625 -58.785156 124.296875 -63.984375 C 129.578125 -69.179688 133.4375 -78.773438 135.875 -92.765625 L 141.640625 -126.453125 C 142.347656 -129.765625 142.691406 -132.335938 142.671875 -134.171875 C 142.660156 -136.015625 142.644531 -138.035156 142.625 -140.234375 C 142.539062 -149.054688 140.640625 -155.65625 136.921875 -160.03125 C 133.203125 -164.414062 128.585938 -166.582031 123.078125 -166.53125 L 109.84375 -166.40625 L 91.5625 -55.96875 Z M 130.8125 -224.484375 C 138.164062 -224.546875 144.484375 -227.175781 149.765625 -232.375 C 155.046875 -237.570312 158.910156 -247.160156 161.359375 -261.140625 L 166.59375 -292.0625 C 167.289062 -295.382812 167.628906 -297.960938 167.609375 -299.796875 C 167.597656 -301.640625 167.582031 -303.660156 167.5625 -305.859375 C 167.476562 -314.679688 165.578125 -321.28125 161.859375 -325.65625 C 158.148438 -330.03125 153.539062 -332.195312 148.03125 -332.15625 L 137.546875 -332.046875 L 119.796875 -224.375 Z M 130.8125 -224.484375 "/></g></g><g style="fill:#ffd84f;fill-opacity:0.502;"><g transform="translate(1044.490612, 942.447607)"><path style="stroke:none" d="M 119.40625 -387.015625 L 202.09375 -387.765625 L 184.671875 -1.6875 L 125.140625 -1.140625 L 129.953125 -78.390625 L 84.203125 -77.96875 L 64.5 -0.59375 L 2.75 -0.03125 Z M 134.390625 -136.296875 L 142.59375 -263.171875 C 143.582031 -275.679688 144.671875 -286.8125 145.859375 -296.5625 C 147.054688 -306.3125 148.351562 -315.421875 149.75 -323.890625 L 147.546875 -323.875 C 145.785156 -315.40625 143.664062 -306.285156 141.1875 -296.515625 C 138.707031 -286.753906 135.867188 -275.609375 132.671875 -263.078125 L 99.65625 -135.984375 Z M 134.390625 -136.296875 "/></g></g><g style="fill:#ffd84f;fill-opacity:0.502;"><g transform="translate(1220.896908, 940.832465)"><path style="stroke:none" d="M 86.328125 -386.71875 L 150.828125 -387.296875 C 173.972656 -387.515625 192.675781 -381.53125 206.9375 -369.34375 C 221.207031 -357.164062 228.453125 -338.765625 228.671875 -314.140625 C 228.710938 -309.734375 228.476562 -305.046875 227.96875 -300.078125 C 227.46875 -295.109375 226.867188 -290.046875 226.171875 -284.890625 L 219.9375 -244.59375 C 216.425781 -225.8125 211.328125 -210.320312 204.640625 -198.125 C 197.960938 -185.9375 189.867188 -176.5 180.359375 -169.8125 L 187.421875 -1.71875 L 125.140625 -1.140625 C 124.660156 -13.265625 124.160156 -27.503906 123.640625 -43.859375 C 123.128906 -60.210938 122.710938 -76.015625 122.390625 -91.265625 C 122.066406 -106.515625 121.757812 -120.109375 121.46875 -132.046875 C 121.175781 -143.992188 121.015625 -151.804688 120.984375 -155.484375 L 108.296875 -155.359375 L 82.6875 -0.75 L 22.046875 -0.203125 Z M 128.734375 -210.6875 C 136.085938 -210.75 142.40625 -213.375 147.6875 -218.5625 C 152.96875 -223.75 156.832031 -233.34375 159.28125 -247.34375 L 166.59375 -292.0625 C 167.289062 -295.382812 167.628906 -297.960938 167.609375 -299.796875 C 167.597656 -301.640625 167.582031 -303.660156 167.5625 -305.859375 C 167.476562 -314.679688 165.578125 -321.28125 161.859375 -325.65625 C 158.148438 -330.03125 153.539062 -332.195312 148.03125 -332.15625 L 137.546875 -332.046875 L 117.703125 -210.578125 Z M 128.734375 -210.6875 "/></g></g><g style="fill:#ffd84f;fill-opacity:0.502;"><g transform="translate(1405.572137, 939.141614)"><path style="stroke:none" d="M 86.328125 -386.71875 L 150.828125 -387.296875 C 173.972656 -387.515625 192.675781 -381.53125 206.9375 -369.34375 C 221.207031 -357.164062 228.453125 -338.765625 228.671875 -314.140625 C 228.710938 -309.734375 228.476562 -305.046875 227.96875 -300.078125 C 227.46875 -295.109375 226.867188 -290.046875 226.171875 -284.890625 L 223.5625 -269.421875 C 221.125 -255.441406 217.554688 -243.832031 212.859375 -234.59375 C 208.171875 -225.363281 203.460938 -217.972656 198.734375 -212.421875 C 193.273438 -205.753906 187.4375 -200.734375 181.21875 -197.359375 C 184.925781 -194.085938 188.457031 -189.894531 191.8125 -184.78125 C 194.800781 -180.40625 197.425781 -174.738281 199.6875 -167.78125 C 201.957031 -160.820312 203.132812 -152.5625 203.21875 -143 C 203.289062 -135.65625 202.625 -128.300781 201.21875 -120.9375 L 195.984375 -90 C 190.035156 -56.875 179.128906 -33.804688 163.265625 -20.796875 C 147.410156 -7.785156 127.71875 -1.171875 104.1875 -0.953125 L 22.046875 -0.203125 Z M 105.34375 -56.09375 C 112.695312 -56.15625 119.015625 -58.785156 124.296875 -63.984375 C 129.578125 -69.179688 133.4375 -78.773438 135.875 -92.765625 L 141.640625 -126.453125 C 142.347656 -129.765625 142.691406 -132.335938 142.671875 -134.171875 C 142.660156 -136.015625 142.644531 -138.035156 142.625 -140.234375 C 142.539062 -149.054688 140.640625 -155.65625 136.921875 -160.03125 C 133.203125 -164.414062 128.585938 -166.582031 123.078125 -166.53125 L 109.84375 -166.40625 L 91.5625 -55.96875 Z M 130.8125 -224.484375 C 138.164062 -224.546875 144.484375 -227.175781 149.765625 -232.375 C 155.046875 -237.570312 158.910156 -247.160156 161.359375 -261.140625 L 166.59375 -292.0625 C 167.289062 -295.382812 167.628906 -297.960938 167.609375 -299.796875 C 167.597656 -301.640625 167.582031 -303.660156 167.5625 -305.859375 C 167.476562 -314.679688 165.578125 -321.28125 161.859375 -325.65625 C 158.148438 -330.03125 153.539062 -332.195312 148.03125 -332.15625 L 137.546875 -332.046875 L 119.796875 -224.375 Z M 130.8125 -224.484375 "/></g></g><g style="fill:#ffd84f;fill-opacity:0.502;"><g transform="translate(1587.491105, 937.475999)"><path style="stroke:none" d="M 86.328125 -386.71875 L 204.84375 -387.796875 L 194.90625 -329.8125 L 137.03125 -329.28125 L 119.796875 -224.375 L 172.140625 -224.859375 L 162.21875 -166.890625 L 109.84375 -166.40625 L 92.09375 -58.734375 L 152.734375 -59.296875 L 143.34375 -1.3125 L 22.046875 -0.203125 Z M 86.328125 -386.71875 "/></g></g><g style="fill:#ffd84f;fill-opacity:0.502;"><g transform="translate(1730.821211, 936.163696)"><path style="stroke:none" d="M 119.40625 -387.015625 L 202.09375 -387.765625 L 184.671875 -1.6875 L 125.140625 -1.140625 L 129.953125 -78.390625 L 84.203125 -77.96875 L 64.5 -0.59375 L 2.75 -0.03125 Z M 134.390625 -136.296875 L 142.59375 -263.171875 C 143.582031 -275.679688 144.671875 -286.8125 145.859375 -296.5625 C 147.054688 -306.3125 148.351562 -315.421875 149.75 -323.890625 L 147.546875 -323.875 C 145.785156 -315.40625 143.664062 -306.285156 141.1875 -296.515625 C 138.707031 -286.753906 135.867188 -275.609375 132.671875 -263.078125 L 99.65625 -135.984375 Z M 134.390625 -136.296875 "/></g></g><g style="fill:#ffd84f;fill-opacity:0.502;"><g transform="translate(1907.227455, 934.548555)"><path style="stroke:none" d="M 86.328125 -386.71875 L 150.828125 -387.296875 C 173.972656 -387.515625 192.675781 -381.53125 206.9375 -369.34375 C 221.207031 -357.164062 228.453125 -338.765625 228.671875 -314.140625 C 228.710938 -309.734375 228.476562 -305.046875 227.96875 -300.078125 C 227.46875 -295.109375 226.867188 -290.046875 226.171875 -284.890625 L 219.9375 -244.59375 C 216.425781 -225.8125 211.328125 -210.320312 204.640625 -198.125 C 197.960938 -185.9375 189.867188 -176.5 180.359375 -169.8125 L 187.421875 -1.71875 L 125.140625 -1.140625 C 124.660156 -13.265625 124.160156 -27.503906 123.640625 -43.859375 C 123.128906 -60.210938 122.710938 -76.015625 122.390625 -91.265625 C 122.066406 -106.515625 121.757812 -120.109375 121.46875 -132.046875 C 121.175781 -143.992188 121.015625 -151.804688 120.984375 -155.484375 L 108.296875 -155.359375 L 82.6875 -0.75 L 22.046875 -0.203125 Z M 128.734375 -210.6875 C 136.085938 -210.75 142.40625 -213.375 147.6875 -218.5625 C 152.96875 -223.75 156.832031 -233.34375 159.28125 -247.34375 L 166.59375 -292.0625 C 167.289062 -295.382812 167.628906 -297.960938 167.609375 -299.796875 C 167.597656 -301.640625 167.582031 -303.660156 167.5625 -305.859375 C 167.476562 -314.679688 165.578125 -321.28125 161.859375 -325.65625 C 158.148438 -330.03125 153.539062 -332.195312 148.03125 -332.15625 L 137.546875 -332.046875 L 117.703125 -210.578125 Z M 128.734375 -210.6875 "/></g></g><g style="fill:#ffd84f;fill-opacity:0.502;"><g transform="translate(2091.902634, 932.857705)"><path style="stroke:none" d="M 86.328125 -386.71875 L 146.96875 -387.265625 L 82.6875 -0.75 L 22.046875 -0.203125 Z M 86.328125 -386.71875 "/></g></g><g style="fill:#ffd84f;fill-opacity:0.502;"><g transform="translate(2185.618429, 931.999661)"><path style="stroke:none" d="M 119.40625 -387.015625 L 202.09375 -387.765625 L 184.671875 -1.6875 L 125.140625 -1.140625 L 129.953125 -78.390625 L 84.203125 -77.96875 L 64.5 -0.59375 L 2.75 -0.03125 Z M 134.390625 -136.296875 L 142.59375 -263.171875 C 143.582031 -275.679688 144.671875 -286.8125 145.859375 -296.5625 C 147.054688 -306.3125 148.351562 -315.421875 149.75 -323.890625 L 147.546875 -323.875 C 145.785156 -315.40625 143.664062 -306.285156 141.1875 -296.515625 C 138.707031 -286.753906 135.867188 -275.609375 132.671875 -263.078125 L 99.65625 -135.984375 Z M 134.390625 -136.296875 "/></g></g><g style="fill:#ffffff;fill-opacity:1;"><g transform="translate(425.300206, 926.065346)"><path style="stroke:none" d="M 69.796875 -386.5625 L 129.328125 -387.109375 L 109.265625 -169.15625 C 108.265625 -158.488281 107.164062 -148.28125 105.96875 -138.53125 C 104.769531 -128.78125 103.835938 -120.039062 103.171875 -112.3125 C 102.160156 -103.113281 101.320312 -94.46875 100.65625 -86.375 L 102.3125 -86.390625 L 176.171875 -387.53125 L 236.8125 -388.09375 L 207.046875 -87.359375 L 208.703125 -87.375 C 208.703125 -87.375 209.226562 -89.859375 210.28125 -94.828125 C 211.332031 -99.804688 212.742188 -105.976562 214.515625 -113.34375 C 216.285156 -120.707031 218.234375 -128.71875 220.359375 -137.375 C 222.484375 -146.03125 224.613281 -154.226562 226.75 -161.96875 L 283.671875 -388.515625 L 345.421875 -389.078125 L 234.28125 -2.140625 L 159.328125 -1.453125 L 177.546875 -178.046875 C 178.203125 -186.867188 179.117188 -196.890625 180.296875 -208.109375 C 181.484375 -219.335938 182.765625 -229.914062 184.140625 -239.84375 C 185.503906 -251.613281 186.867188 -263.207031 188.234375 -274.625 L 186.578125 -274.609375 C 183.742188 -263.179688 180.910156 -251.578125 178.078125 -239.796875 C 175.597656 -229.847656 173.125 -219.253906 170.65625 -208.015625 C 168.195312 -196.785156 165.90625 -186.753906 163.78125 -177.921875 L 120.734375 -1.109375 L 44.109375 -0.40625 Z M 69.796875 -386.5625 "/></g></g><g style="fill:#ffffff;fill-opacity:1;"><g transform="translate(700.935098, 923.541687)"><path style="stroke:none" d="M 86.328125 -386.71875 L 204.84375 -387.796875 L 194.90625 -329.8125 L 137.03125 -329.28125 L 118.734375 -218.859375 L 171.09375 -219.328125 L 161.71875 -161.375 L 109.34375 -160.890625 L 82.6875 -0.75 L 22.046875 -0.203125 Z M 86.328125 -386.71875 "/></g></g><g style="fill:#ffffff;fill-opacity:1;"><g transform="translate(835.996118, 922.305094)"><path style="stroke:none" d=""/></g></g><g style="fill:#ffffff;fill-opacity:1;"><g transform="translate(902.148321, 921.699417)"><path style="stroke:none" d="M 86.328125 -386.71875 L 150.828125 -387.296875 C 173.972656 -387.515625 192.675781 -381.53125 206.9375 -369.34375 C 221.207031 -357.164062 228.453125 -338.765625 228.671875 -314.140625 C 228.710938 -309.734375 228.476562 -305.046875 227.96875 -300.078125 C 227.46875 -295.109375 226.867188 -290.046875 226.171875 -284.890625 L 223.5625 -269.421875 C 221.125 -255.441406 217.554688 -243.832031 212.859375 -234.59375 C 208.171875 -225.363281 203.460938 -217.972656 198.734375 -212.421875 C 193.273438 -205.753906 187.4375 -200.734375 181.21875 -197.359375 C 184.925781 -194.085938 188.457031 -189.894531 191.8125 -184.78125 C 194.800781 -180.40625 197.425781 -174.738281 199.6875 -167.78125 C 201.957031 -160.820312 203.132812 -152.5625 203.21875 -143 C 203.289062 -135.65625 202.625 -128.300781 201.21875 -120.9375 L 195.984375 -90 C 190.035156 -56.875 179.128906 -33.804688 163.265625 -20.796875 C 147.410156 -7.785156 127.71875 -1.171875 104.1875 -0.953125 L 22.046875 -0.203125 Z M 105.34375 -56.09375 C 112.695312 -56.15625 119.015625 -58.785156 124.296875 -63.984375 C 129.578125 -69.179688 133.4375 -78.773438 135.875 -92.765625 L 141.640625 -126.453125 C 142.347656 -129.765625 142.691406 -132.335938 142.671875 -134.171875 C 142.660156 -136.015625 142.644531 -138.035156 142.625 -140.234375 C 142.539062 -149.054688 140.640625 -155.65625 136.921875 -160.03125 C 133.203125 -164.414062 128.585938 -166.582031 123.078125 -166.53125 L 109.84375 -166.40625 L 91.5625 -55.96875 Z M 130.8125 -224.484375 C 138.164062 -224.546875 144.484375 -227.175781 149.765625 -232.375 C 155.046875 -237.570312 158.910156 -247.160156 161.359375 -261.140625 L 166.59375 -292.0625 C 167.289062 -295.382812 167.628906 -297.960938 167.609375 -299.796875 C 167.597656 -301.640625 167.582031 -303.660156 167.5625 -305.859375 C 167.476562 -314.679688 165.578125 -321.28125 161.859375 -325.65625 C 158.148438 -330.03125 153.539062 -332.195312 148.03125 -332.15625 L 137.546875 -332.046875 L 119.796875 -224.375 Z M 130.8125 -224.484375 "/></g></g><g style="fill:#ffffff;fill-opacity:1;"><g transform="translate(1084.067289, 920.033802)"><path style="stroke:none" d="M 119.40625 -387.015625 L 202.09375 -387.765625 L 184.671875 -1.6875 L 125.140625 -1.140625 L 129.953125 -78.390625 L 84.203125 -77.96875 L 64.5 -0.59375 L 2.75 -0.03125 Z M 134.390625 -136.296875 L 142.59375 -263.171875 C 143.582031 -275.679688 144.671875 -286.8125 145.859375 -296.5625 C 147.054688 -306.3125 148.351562 -315.421875 149.75 -323.890625 L 147.546875 -323.875 C 145.785156 -315.40625 143.664062 -306.285156 141.1875 -296.515625 C 138.707031 -286.753906 135.867188 -275.609375 132.671875 -263.078125 L 99.65625 -135.984375 Z M 134.390625 -136.296875 "/></g></g><g style="fill:#ffffff;fill-opacity:1;"><g transform="translate(1260.473585, 918.41866)"><path style="stroke:none" d="M 86.328125 -386.71875 L 150.828125 -387.296875 C 173.972656 -387.515625 192.675781 -381.53125 206.9375 -369.34375 C 221.207031 -357.164062 228.453125 -338.765625 228.671875 -314.140625 C 228.710938 -309.734375 228.476562 -305.046875 227.96875 -300.078125 C 227.46875 -295.109375 226.867188 -290.046875 226.171875 -284.890625 L 219.9375 -244.59375 C 216.425781 -225.8125 211.328125 -210.320312 204.640625 -198.125 C 197.960938 -185.9375 189.867188 -176.5 180.359375 -169.8125 L 187.421875 -1.71875 L 125.140625 -1.140625 C 124.660156 -13.265625 124.160156 -27.503906 123.640625 -43.859375 C 123.128906 -60.210938 122.710938 -76.015625 122.390625 -91.265625 C 122.066406 -106.515625 121.757812 -120.109375 121.46875 -132.046875 C 121.175781 -143.992188 121.015625 -151.804688 120.984375 -155.484375 L 108.296875 -155.359375 L 82.6875 -0.75 L 22.046875 -0.203125 Z M 128.734375 -210.6875 C 136.085938 -210.75 142.40625 -213.375 147.6875 -218.5625 C 152.96875 -223.75 156.832031 -233.34375 159.28125 -247.34375 L 166.59375 -292.0625 C 167.289062 -295.382812 167.628906 -297.960938 167.609375 -299.796875 C 167.597656 -301.640625 167.582031 -303.660156 167.5625 -305.859375 C 167.476562 -314.679688 165.578125 -321.28125 161.859375 -325.65625 C 158.148438 -330.03125 153.539062 -332.195312 148.03125 -332.15625 L 137.546875 -332.046875 L 117.703125 -210.578125 Z M 128.734375 -210.6875 "/></g></g><g style="fill:#ffffff;fill-opacity:1;"><g transform="translate(1445.148814, 916.72781)"><path style="stroke:none" d="M 86.328125 -386.71875 L 150.828125 -387.296875 C 173.972656 -387.515625 192.675781 -381.53125 206.9375 -369.34375 C 221.207031 -357.164062 228.453125 -338.765625 228.671875 -314.140625 C 228.710938 -309.734375 228.476562 -305.046875 227.96875 -300.078125 C 227.46875 -295.109375 226.867188 -290.046875 226.171875 -284.890625 L 223.5625 -269.421875 C 221.125 -255.441406 217.554688 -243.832031 212.859375 -234.59375 C 208.171875 -225.363281 203.460938 -217.972656 198.734375 -212.421875 C 193.273438 -205.753906 187.4375 -200.734375 181.21875 -197.359375 C 184.925781 -194.085938 188.457031 -189.894531 191.8125 -184.78125 C 194.800781 -180.40625 197.425781 -174.738281 199.6875 -167.78125 C 201.957031 -160.820312 203.132812 -152.5625 203.21875 -143 C 203.289062 -135.65625 202.625 -128.300781 201.21875 -120.9375 L 195.984375 -90 C 190.035156 -56.875 179.128906 -33.804688 163.265625 -20.796875 C 147.410156 -7.785156 127.71875 -1.171875 104.1875 -0.953125 L 22.046875 -0.203125 Z M 105.34375 -56.09375 C 112.695312 -56.15625 119.015625 -58.785156 124.296875 -63.984375 C 129.578125 -69.179688 133.4375 -78.773438 135.875 -92.765625 L 141.640625 -126.453125 C 142.347656 -129.765625 142.691406 -132.335938 142.671875 -134.171875 C 142.660156 -136.015625 142.644531 -138.035156 142.625 -140.234375 C 142.539062 -149.054688 140.640625 -155.65625 136.921875 -160.03125 C 133.203125 -164.414062 128.585938 -166.582031 123.078125 -166.53125 L 109.84375 -166.40625 L 91.5625 -55.96875 Z M 130.8125 -224.484375 C 138.164062 -224.546875 144.484375 -227.175781 149.765625 -232.375 C 155.046875 -237.570312 158.910156 -247.160156 161.359375 -261.140625 L 166.59375 -292.0625 C 167.289062 -295.382812 167.628906 -297.960938 167.609375 -299.796875 C 167.597656 -301.640625 167.582031 -303.660156 167.5625 -305.859375 C 167.476562 -314.679688 165.578125 -321.28125 161.859375 -325.65625 C 158.148438 -330.03125 153.539062 -332.195312 148.03125 -332.15625 L 137.546875 -332.046875 L 119.796875 -224.375 Z M 130.8125 -224.484375 "/></g></g><g style="fill:#ffffff;fill-opacity:1;"><g transform="translate(1627.067782, 915.062195)"><path style="stroke:none" d="M 86.328125 -386.71875 L 204.84375 -387.796875 L 194.90625 -329.8125 L 137.03125 -329.28125 L 119.796875 -224.375 L 172.140625 -224.859375 L 162.21875 -166.890625 L 109.84375 -166.40625 L 92.09375 -58.734375 L 152.734375 -59.296875 L 143.34375 -1.3125 L 22.046875 -0.203125 Z M 86.328125 -386.71875 "/></g></g><g style="fill:#ffffff;fill-opacity:1;"><g transform="translate(1770.397888, 913.749892)"><path style="stroke:none" d="M 119.40625 -387.015625 L 202.09375 -387.765625 L 184.671875 -1.6875 L 125.140625 -1.140625 L 129.953125 -78.390625 L 84.203125 -77.96875 L 64.5 -0.59375 L 2.75 -0.03125 Z M 134.390625 -136.296875 L 142.59375 -263.171875 C 143.582031 -275.679688 144.671875 -286.8125 145.859375 -296.5625 C 147.054688 -306.3125 148.351562 -315.421875 149.75 -323.890625 L 147.546875 -323.875 C 145.785156 -315.40625 143.664062 -306.285156 141.1875 -296.515625 C 138.707031 -286.753906 135.867188 -275.609375 132.671875 -263.078125 L 99.65625 -135.984375 Z M 134.390625 -136.296875 "/></g></g><g style="fill:#ffffff;fill-opacity:1;"><g transform="translate(1946.804132, 912.134751)"><path style="stroke:none" d="M 86.328125 -386.71875 L 150.828125 -387.296875 C 173.972656 -387.515625 192.675781 -381.53125 206.9375 -369.34375 C 221.207031 -357.164062 228.453125 -338.765625 228.671875 -314.140625 C 228.710938 -309.734375 228.476562 -305.046875 227.96875 -300.078125 C 227.46875 -295.109375 226.867188 -290.046875 226.171875 -284.890625 L 219.9375 -244.59375 C 216.425781 -225.8125 211.328125 -210.320312 204.640625 -198.125 C 197.960938 -185.9375 189.867188 -176.5 180.359375 -169.8125 L 187.421875 -1.71875 L 125.140625 -1.140625 C 124.660156 -13.265625 124.160156 -27.503906 123.640625 -43.859375 C 123.128906 -60.210938 122.710938 -76.015625 122.390625 -91.265625 C 122.066406 -106.515625 121.757812 -120.109375 121.46875 -132.046875 C 121.175781 -143.992188 121.015625 -151.804688 120.984375 -155.484375 L 108.296875 -155.359375 L 82.6875 -0.75 L 22.046875 -0.203125 Z M 128.734375 -210.6875 C 136.085938 -210.75 142.40625 -213.375 147.6875 -218.5625 C 152.96875 -223.75 156.832031 -233.34375 159.28125 -247.34375 L 166.59375 -292.0625 C 167.289062 -295.382812 167.628906 -297.960938 167.609375 -299.796875 C 167.597656 -301.640625 167.582031 -303.660156 167.5625 -305.859375 C 167.476562 -314.679688 165.578125 -321.28125 161.859375 -325.65625 C 158.148438 -330.03125 153.539062 -332.195312 148.03125 -332.15625 L 137.546875 -332.046875 L 117.703125 -210.578125 Z M 128.734375 -210.6875 "/></g></g><g style="fill:#ffffff;fill-opacity:1;"><g transform="translate(2131.479311, 910.4439)"><path style="stroke:none" d="M 86.328125 -386.71875 L 146.96875 -387.265625 L 82.6875 -0.75 L 22.046875 -0.203125 Z M 86.328125 -386.71875 "/></g></g><g style="fill:#ffffff;fill-opacity:1;"><g transform="translate(2225.195106, 909.585857)"><path style="stroke:none" d="M 119.40625 -387.015625 L 202.09375 -387.765625 L 184.671875 -1.6875 L 125.140625 -1.140625 L 129.953125 -78.390625 L 84.203125 -77.96875 L 64.5 -0.59375 L 2.75 -0.03125 Z M 134.390625 -136.296875 L 142.59375 -263.171875 C 143.582031 -275.679688 144.671875 -286.8125 145.859375 -296.5625 C 147.054688 -306.3125 148.351562 -315.421875 149.75 -323.890625 L 147.546875 -323.875 C 145.785156 -315.40625 143.664062 -306.285156 141.1875 -296.515625 C 138.707031 -286.753906 135.867188 -275.609375 132.671875 -263.078125 L 99.65625 -135.984375 Z M 134.390625 -136.296875 "/></g></g></g></svg>