<svg xmlns="http://www.w3.org/2000/svg" xmlns:xlink="http://www.w3.org/1999/xlink" width="3780" zoomAndPan="magnify" viewBox="0 0 2835 1417.499962" height="1890" preserveAspectRatio="xMidYMid meet" version="1.2"><defs/><g id="08113a9c24"><g style="fill:#cbcd5d;fill-opacity:0.302;"><g transform="translate(933.558045, 831.757105)"><path style="stroke:none" d="M 31.53125 -174.609375 L 58.421875 -174.859375 L 49.359375 -76.40625 C 48.910156 -71.59375 48.410156 -66.984375 47.859375 -62.578125 C 47.316406 -58.171875 46.898438 -54.222656 46.609375 -50.734375 C 46.140625 -46.578125 45.757812 -42.671875 45.46875 -39.015625 L 46.203125 -39.015625 L 79.59375 -175.0625 L 106.984375 -175.3125 L 93.53125 -39.453125 L 94.265625 -39.453125 C 94.265625 -39.453125 94.503906 -40.578125 94.984375 -42.828125 C 95.460938 -45.078125 96.101562 -47.863281 96.90625 -51.1875 C 97.707031 -54.519531 98.585938 -58.140625 99.546875 -62.046875 C 100.515625 -65.960938 101.476562 -69.664062 102.4375 -73.15625 L 128.15625 -175.5 L 156.046875 -175.75 L 105.84375 -0.96875 L 71.96875 -0.65625 L 80.203125 -80.421875 C 80.503906 -84.421875 80.921875 -88.953125 81.453125 -94.015625 C 81.984375 -99.085938 82.5625 -103.863281 83.1875 -108.34375 C 83.800781 -113.664062 84.421875 -118.898438 85.046875 -124.046875 L 84.296875 -124.046875 C 83.003906 -118.890625 81.722656 -113.648438 80.453125 -108.328125 C 79.328125 -103.835938 78.207031 -99.054688 77.09375 -93.984375 C 75.976562 -88.910156 74.9375 -84.375 73.96875 -80.375 L 54.53125 -0.5 L 19.921875 -0.1875 Z M 31.53125 -174.609375 "/></g></g><g style="fill:#cbcd5d;fill-opacity:0.302;"><g transform="translate(1058.065354, 830.61714)"><path style="stroke:none" d="M 39 -174.6875 L 92.546875 -175.171875 L 88.046875 -148.984375 L 61.890625 -148.75 L 53.625 -98.875 L 77.296875 -99.09375 L 73.0625 -72.890625 L 49.40625 -72.671875 L 37.359375 -0.34375 L 9.96875 -0.09375 Z M 39 -174.6875 "/></g></g><g style="fill:#cbcd5d;fill-opacity:0.302;"><g transform="translate(1119.073902, 830.058558)"><path style="stroke:none" d=""/></g></g><g style="fill:#cbcd5d;fill-opacity:0.302;"><g transform="translate(1148.955579, 829.784967)"><path style="stroke:none" d="M 39 -174.6875 L 68.140625 -174.953125 C 78.597656 -175.046875 87.046875 -172.34375 93.484375 -166.84375 C 99.929688 -161.34375 103.203125 -153.03125 103.296875 -141.90625 C 103.316406 -139.914062 103.210938 -137.796875 102.984375 -135.546875 C 102.753906 -133.304688 102.484375 -131.023438 102.171875 -128.703125 L 101 -121.71875 C 99.894531 -115.394531 98.28125 -110.144531 96.15625 -105.96875 C 94.039062 -101.800781 91.910156 -98.460938 89.765625 -95.953125 C 87.304688 -92.941406 84.671875 -90.675781 81.859375 -89.15625 C 83.546875 -87.6875 85.144531 -85.789062 86.65625 -83.46875 C 88 -81.488281 89.179688 -78.925781 90.203125 -75.78125 C 91.234375 -72.644531 91.769531 -68.914062 91.8125 -64.59375 C 91.84375 -61.269531 91.535156 -57.953125 90.890625 -54.640625 L 88.546875 -40.65625 C 85.859375 -25.695312 80.925781 -15.273438 73.75 -9.390625 C 66.582031 -3.515625 57.6875 -0.53125 47.0625 -0.4375 L 9.96875 -0.09375 Z M 47.578125 -25.34375 C 50.898438 -25.375 53.753906 -26.5625 56.140625 -28.90625 C 58.523438 -31.25 60.273438 -35.582031 61.390625 -41.90625 L 63.984375 -57.125 C 64.304688 -58.613281 64.460938 -59.773438 64.453125 -60.609375 C 64.441406 -61.441406 64.429688 -62.351562 64.421875 -63.34375 C 64.390625 -67.332031 63.53125 -70.3125 61.84375 -72.28125 C 60.164062 -74.257812 58.082031 -75.238281 55.59375 -75.21875 L 49.609375 -75.15625 L 41.359375 -25.28125 Z M 59.09375 -101.40625 C 62.414062 -101.4375 65.269531 -102.625 67.65625 -104.96875 C 70.039062 -107.3125 71.785156 -111.644531 72.890625 -117.96875 L 75.25 -131.9375 C 75.570312 -133.4375 75.726562 -134.597656 75.71875 -135.421875 C 75.707031 -136.253906 75.695312 -137.171875 75.6875 -138.171875 C 75.65625 -142.148438 74.796875 -145.128906 73.109375 -147.109375 C 71.429688 -149.085938 69.347656 -150.066406 66.859375 -150.046875 L 62.125 -150 L 54.109375 -101.359375 Z M 59.09375 -101.40625 "/></g></g><g style="fill:#cbcd5d;fill-opacity:0.302;"><g transform="translate(1231.130376, 829.032591)"><path style="stroke:none" d="M 53.9375 -174.828125 L 91.296875 -175.15625 L 83.421875 -0.765625 L 56.53125 -0.515625 L 58.703125 -35.40625 L 38.03125 -35.203125 L 29.140625 -0.265625 L 1.25 -0.015625 Z M 60.703125 -61.578125 L 64.421875 -118.890625 C 64.867188 -124.535156 65.359375 -129.5625 65.890625 -133.96875 C 66.429688 -138.375 67.019531 -142.488281 67.65625 -146.3125 L 66.65625 -146.3125 C 65.851562 -142.476562 64.890625 -138.351562 63.765625 -133.9375 C 62.648438 -129.53125 61.375 -124.503906 59.9375 -118.859375 L 45.015625 -61.4375 Z M 60.703125 -61.578125 "/></g></g><g style="fill:#cbcd5d;fill-opacity:0.302;"><g transform="translate(1310.815038, 828.303013)"><path style="stroke:none" d="M 39 -174.6875 L 68.140625 -174.953125 C 78.597656 -175.046875 87.046875 -172.34375 93.484375 -166.84375 C 99.929688 -161.34375 103.203125 -153.03125 103.296875 -141.90625 C 103.316406 -139.914062 103.210938 -137.796875 102.984375 -135.546875 C 102.753906 -133.304688 102.484375 -131.023438 102.171875 -128.703125 L 99.359375 -110.5 C 97.773438 -102.007812 95.472656 -95.007812 92.453125 -89.5 C 89.429688 -84 85.773438 -79.734375 81.484375 -76.703125 L 84.671875 -0.78125 L 56.53125 -0.515625 C 56.3125 -5.992188 56.082031 -12.425781 55.84375 -19.8125 C 55.613281 -27.195312 55.425781 -34.332031 55.28125 -41.21875 C 55.132812 -48.113281 54.992188 -54.253906 54.859375 -59.640625 C 54.734375 -65.035156 54.660156 -68.566406 54.640625 -70.234375 L 48.921875 -70.1875 L 37.359375 -0.34375 L 9.96875 -0.09375 Z M 58.15625 -95.171875 C 61.476562 -95.203125 64.328125 -96.390625 66.703125 -98.734375 C 69.085938 -101.085938 70.835938 -105.421875 71.953125 -111.734375 L 75.25 -131.9375 C 75.570312 -133.4375 75.726562 -134.597656 75.71875 -135.421875 C 75.707031 -136.253906 75.695312 -137.171875 75.6875 -138.171875 C 75.65625 -142.148438 74.796875 -145.128906 73.109375 -147.109375 C 71.429688 -149.085938 69.347656 -150.066406 66.859375 -150.046875 L 62.125 -150 L 53.1875 -95.125 Z M 58.15625 -95.171875 "/></g></g><g style="fill:#cbcd5d;fill-opacity:0.302;"><g transform="translate(1394.234869, 827.539237)"><path style="stroke:none" d="M 39 -174.6875 L 68.140625 -174.953125 C 78.597656 -175.046875 87.046875 -172.34375 93.484375 -166.84375 C 99.929688 -161.34375 103.203125 -153.03125 103.296875 -141.90625 C 103.316406 -139.914062 103.210938 -137.796875 102.984375 -135.546875 C 102.753906 -133.304688 102.484375 -131.023438 102.171875 -128.703125 L 101 -121.71875 C 99.894531 -115.394531 98.28125 -110.144531 96.15625 -105.96875 C 94.039062 -101.800781 91.910156 -98.460938 89.765625 -95.953125 C 87.304688 -92.941406 84.671875 -90.675781 81.859375 -89.15625 C 83.546875 -87.6875 85.144531 -85.789062 86.65625 -83.46875 C 88 -81.488281 89.179688 -78.925781 90.203125 -75.78125 C 91.234375 -72.644531 91.769531 -68.914062 91.8125 -64.59375 C 91.84375 -61.269531 91.535156 -57.953125 90.890625 -54.640625 L 88.546875 -40.65625 C 85.859375 -25.695312 80.925781 -15.273438 73.75 -9.390625 C 66.582031 -3.515625 57.6875 -0.53125 47.0625 -0.4375 L 9.96875 -0.09375 Z M 47.578125 -25.34375 C 50.898438 -25.375 53.753906 -26.5625 56.140625 -28.90625 C 58.523438 -31.25 60.273438 -35.582031 61.390625 -41.90625 L 63.984375 -57.125 C 64.304688 -58.613281 64.460938 -59.773438 64.453125 -60.609375 C 64.441406 -61.441406 64.429688 -62.351562 64.421875 -63.34375 C 64.390625 -67.332031 63.53125 -70.3125 61.84375 -72.28125 C 60.164062 -74.257812 58.082031 -75.238281 55.59375 -75.21875 L 49.609375 -75.15625 L 41.359375 -25.28125 Z M 59.09375 -101.40625 C 62.414062 -101.4375 65.269531 -102.625 67.65625 -104.96875 C 70.039062 -107.3125 71.785156 -111.644531 72.890625 -117.96875 L 75.25 -131.9375 C 75.570312 -133.4375 75.726562 -134.597656 75.71875 -135.421875 C 75.707031 -136.253906 75.695312 -137.171875 75.6875 -138.171875 C 75.65625 -142.148438 74.796875 -145.128906 73.109375 -147.109375 C 71.429688 -149.085938 69.347656 -150.066406 66.859375 -150.046875 L 62.125 -150 L 54.109375 -101.359375 Z M 59.09375 -101.40625 "/></g></g><g style="fill:#cbcd5d;fill-opacity:0.302;"><g transform="translate(1476.409666, 826.786861)"><path style="stroke:none" d="M 39 -174.6875 L 92.546875 -175.171875 L 88.046875 -148.984375 L 61.890625 -148.75 L 54.109375 -101.359375 L 77.765625 -101.578125 L 73.28125 -75.375 L 49.609375 -75.15625 L 41.609375 -26.53125 L 69 -26.78125 L 64.75 -0.59375 L 9.96875 -0.09375 Z M 39 -174.6875 "/></g></g><g style="fill:#cbcd5d;fill-opacity:0.302;"><g transform="translate(1541.15345, 826.194079)"><path style="stroke:none" d="M 53.9375 -174.828125 L 91.296875 -175.15625 L 83.421875 -0.765625 L 56.53125 -0.515625 L 58.703125 -35.40625 L 38.03125 -35.203125 L 29.140625 -0.265625 L 1.25 -0.015625 Z M 60.703125 -61.578125 L 64.421875 -118.890625 C 64.867188 -124.535156 65.359375 -129.5625 65.890625 -133.96875 C 66.429688 -138.375 67.019531 -142.488281 67.65625 -146.3125 L 66.65625 -146.3125 C 65.851562 -142.476562 64.890625 -138.351562 63.765625 -133.9375 C 62.648438 -129.53125 61.375 -124.503906 59.9375 -118.859375 L 45.015625 -61.4375 Z M 60.703125 -61.578125 "/></g></g><g style="fill:#cbcd5d;fill-opacity:0.302;"><g transform="translate(1620.838089, 825.464502)"><path style="stroke:none" d="M 39 -174.6875 L 68.140625 -174.953125 C 78.597656 -175.046875 87.046875 -172.34375 93.484375 -166.84375 C 99.929688 -161.34375 103.203125 -153.03125 103.296875 -141.90625 C 103.316406 -139.914062 103.210938 -137.796875 102.984375 -135.546875 C 102.753906 -133.304688 102.484375 -131.023438 102.171875 -128.703125 L 99.359375 -110.5 C 97.773438 -102.007812 95.472656 -95.007812 92.453125 -89.5 C 89.429688 -84 85.773438 -79.734375 81.484375 -76.703125 L 84.671875 -0.78125 L 56.53125 -0.515625 C 56.3125 -5.992188 56.082031 -12.425781 55.84375 -19.8125 C 55.613281 -27.195312 55.425781 -34.332031 55.28125 -41.21875 C 55.132812 -48.113281 54.992188 -54.253906 54.859375 -59.640625 C 54.734375 -65.035156 54.660156 -68.566406 54.640625 -70.234375 L 48.921875 -70.1875 L 37.359375 -0.34375 L 9.96875 -0.09375 Z M 58.15625 -95.171875 C 61.476562 -95.203125 64.328125 -96.390625 66.703125 -98.734375 C 69.085938 -101.085938 70.835938 -105.421875 71.953125 -111.734375 L 75.25 -131.9375 C 75.570312 -133.4375 75.726562 -134.597656 75.71875 -135.421875 C 75.707031 -136.253906 75.695312 -137.171875 75.6875 -138.171875 C 75.65625 -142.148438 74.796875 -145.128906 73.109375 -147.109375 C 71.429688 -149.085938 69.347656 -150.066406 66.859375 -150.046875 L 62.125 -150 L 53.1875 -95.125 Z M 58.15625 -95.171875 "/></g></g><g style="fill:#cbcd5d;fill-opacity:0.302;"><g transform="translate(1704.257897, 824.700727)"><path style="stroke:none" d="M 39 -174.6875 L 66.390625 -174.9375 L 37.359375 -0.34375 L 9.96875 -0.09375 Z M 39 -174.6875 "/></g></g><g style="fill:#cbcd5d;fill-opacity:0.302;"><g transform="translate(1746.590352, 824.313139)"><path style="stroke:none" d="M 53.9375 -174.828125 L 91.296875 -175.15625 L 83.421875 -0.765625 L 56.53125 -0.515625 L 58.703125 -35.40625 L 38.03125 -35.203125 L 29.140625 -0.265625 L 1.25 -0.015625 Z M 60.703125 -61.578125 L 64.421875 -118.890625 C 64.867188 -124.535156 65.359375 -129.5625 65.890625 -133.96875 C 66.429688 -138.375 67.019531 -142.488281 67.65625 -146.3125 L 66.65625 -146.3125 C 65.851562 -142.476562 64.890625 -138.351562 63.765625 -133.9375 C 62.648438 -129.53125 61.375 -124.503906 59.9375 -118.859375 L 45.015625 -61.4375 Z M 60.703125 -61.578125 "/></g></g><g style="fill:#cbcd5d;fill-opacity:0.502;"><g transform="translate(951.435266, 821.632581)"><path style="stroke:none" d="M 31.53125 -174.609375 L 58.421875 -174.859375 L 49.359375 -76.40625 C 48.910156 -71.59375 48.410156 -66.984375 47.859375 -62.578125 C 47.316406 -58.171875 46.898438 -54.222656 46.609375 -50.734375 C 46.140625 -46.578125 45.757812 -42.671875 45.46875 -39.015625 L 46.203125 -39.015625 L 79.59375 -175.0625 L 106.984375 -175.3125 L 93.53125 -39.453125 L 94.265625 -39.453125 C 94.265625 -39.453125 94.503906 -40.578125 94.984375 -42.828125 C 95.460938 -45.078125 96.101562 -47.863281 96.90625 -51.1875 C 97.707031 -54.519531 98.585938 -58.140625 99.546875 -62.046875 C 100.515625 -65.960938 101.476562 -69.664062 102.4375 -73.15625 L 128.15625 -175.5 L 156.046875 -175.75 L 105.84375 -0.96875 L 71.96875 -0.65625 L 80.203125 -80.421875 C 80.503906 -84.421875 80.921875 -88.953125 81.453125 -94.015625 C 81.984375 -99.085938 82.5625 -103.863281 83.1875 -108.34375 C 83.800781 -113.664062 84.421875 -118.898438 85.046875 -124.046875 L 84.296875 -124.046875 C 83.003906 -118.890625 81.722656 -113.648438 80.453125 -108.328125 C 79.328125 -103.835938 78.207031 -99.054688 77.09375 -93.984375 C 75.976562 -88.910156 74.9375 -84.375 73.96875 -80.375 L 54.53125 -0.5 L 19.921875 -0.1875 Z M 31.53125 -174.609375 "/></g></g><g style="fill:#cbcd5d;fill-opacity:0.502;"><g transform="translate(1075.942575, 820.492616)"><path style="stroke:none" d="M 39 -174.6875 L 92.546875 -175.171875 L 88.046875 -148.984375 L 61.890625 -148.75 L 53.625 -98.875 L 77.296875 -99.09375 L 73.0625 -72.890625 L 49.40625 -72.671875 L 37.359375 -0.34375 L 9.96875 -0.09375 Z M 39 -174.6875 "/></g></g><g style="fill:#cbcd5d;fill-opacity:0.502;"><g transform="translate(1136.951123, 819.934034)"><path style="stroke:none" d=""/></g></g><g style="fill:#cbcd5d;fill-opacity:0.502;"><g transform="translate(1166.8328, 819.660443)"><path style="stroke:none" d="M 39 -174.6875 L 68.140625 -174.953125 C 78.597656 -175.046875 87.046875 -172.34375 93.484375 -166.84375 C 99.929688 -161.34375 103.203125 -153.03125 103.296875 -141.90625 C 103.316406 -139.914062 103.210938 -137.796875 102.984375 -135.546875 C 102.753906 -133.304688 102.484375 -131.023438 102.171875 -128.703125 L 101 -121.71875 C 99.894531 -115.394531 98.28125 -110.144531 96.15625 -105.96875 C 94.039062 -101.800781 91.910156 -98.460938 89.765625 -95.953125 C 87.304688 -92.941406 84.671875 -90.675781 81.859375 -89.15625 C 83.546875 -87.6875 85.144531 -85.789062 86.65625 -83.46875 C 88 -81.488281 89.179688 -78.925781 90.203125 -75.78125 C 91.234375 -72.644531 91.769531 -68.914062 91.8125 -64.59375 C 91.84375 -61.269531 91.535156 -57.953125 90.890625 -54.640625 L 88.546875 -40.65625 C 85.859375 -25.695312 80.925781 -15.273438 73.75 -9.390625 C 66.582031 -3.515625 57.6875 -0.53125 47.0625 -0.4375 L 9.96875 -0.09375 Z M 47.578125 -25.34375 C 50.898438 -25.375 53.753906 -26.5625 56.140625 -28.90625 C 58.523438 -31.25 60.273438 -35.582031 61.390625 -41.90625 L 63.984375 -57.125 C 64.304688 -58.613281 64.460938 -59.773438 64.453125 -60.609375 C 64.441406 -61.441406 64.429688 -62.351562 64.421875 -63.34375 C 64.390625 -67.332031 63.53125 -70.3125 61.84375 -72.28125 C 60.164062 -74.257812 58.082031 -75.238281 55.59375 -75.21875 L 49.609375 -75.15625 L 41.359375 -25.28125 Z M 59.09375 -101.40625 C 62.414062 -101.4375 65.269531 -102.625 67.65625 -104.96875 C 70.039062 -107.3125 71.785156 -111.644531 72.890625 -117.96875 L 75.25 -131.9375 C 75.570312 -133.4375 75.726562 -134.597656 75.71875 -135.421875 C 75.707031 -136.253906 75.695312 -137.171875 75.6875 -138.171875 C 75.65625 -142.148438 74.796875 -145.128906 73.109375 -147.109375 C 71.429688 -149.085938 69.347656 -150.066406 66.859375 -150.046875 L 62.125 -150 L 54.109375 -101.359375 Z M 59.09375 -101.40625 "/></g></g><g style="fill:#cbcd5d;fill-opacity:0.502;"><g transform="translate(1249.007597, 818.908067)"><path style="stroke:none" d="M 53.9375 -174.828125 L 91.296875 -175.15625 L 83.421875 -0.765625 L 56.53125 -0.515625 L 58.703125 -35.40625 L 38.03125 -35.203125 L 29.140625 -0.265625 L 1.25 -0.015625 Z M 60.703125 -61.578125 L 64.421875 -118.890625 C 64.867188 -124.535156 65.359375 -129.5625 65.890625 -133.96875 C 66.429688 -138.375 67.019531 -142.488281 67.65625 -146.3125 L 66.65625 -146.3125 C 65.851562 -142.476562 64.890625 -138.351562 63.765625 -133.9375 C 62.648438 -129.53125 61.375 -124.503906 59.9375 -118.859375 L 45.015625 -61.4375 Z M 60.703125 -61.578125 "/></g></g><g style="fill:#cbcd5d;fill-opacity:0.502;"><g transform="translate(1328.692259, 818.178489)"><path style="stroke:none" d="M 39 -174.6875 L 68.140625 -174.953125 C 78.597656 -175.046875 87.046875 -172.34375 93.484375 -166.84375 C 99.929688 -161.34375 103.203125 -153.03125 103.296875 -141.90625 C 103.316406 -139.914062 103.210938 -137.796875 102.984375 -135.546875 C 102.753906 -133.304688 102.484375 -131.023438 102.171875 -128.703125 L 99.359375 -110.5 C 97.773438 -102.007812 95.472656 -95.007812 92.453125 -89.5 C 89.429688 -84 85.773438 -79.734375 81.484375 -76.703125 L 84.671875 -0.78125 L 56.53125 -0.515625 C 56.3125 -5.992188 56.082031 -12.425781 55.84375 -19.8125 C 55.613281 -27.195312 55.425781 -34.332031 55.28125 -41.21875 C 55.132812 -48.113281 54.992188 -54.253906 54.859375 -59.640625 C 54.734375 -65.035156 54.660156 -68.566406 54.640625 -70.234375 L 48.921875 -70.1875 L 37.359375 -0.34375 L 9.96875 -0.09375 Z M 58.15625 -95.171875 C 61.476562 -95.203125 64.328125 -96.390625 66.703125 -98.734375 C 69.085938 -101.085938 70.835938 -105.421875 71.953125 -111.734375 L 75.25 -131.9375 C 75.570312 -133.4375 75.726562 -134.597656 75.71875 -135.421875 C 75.707031 -136.253906 75.695312 -137.171875 75.6875 -138.171875 C 75.65625 -142.148438 74.796875 -145.128906 73.109375 -147.109375 C 71.429688 -149.085938 69.347656 -150.066406 66.859375 -150.046875 L 62.125 -150 L 53.1875 -95.125 Z M 58.15625 -95.171875 "/></g></g><g style="fill:#cbcd5d;fill-opacity:0.502;"><g transform="translate(1412.11209, 817.414713)"><path style="stroke:none" d="M 39 -174.6875 L 68.140625 -174.953125 C 78.597656 -175.046875 87.046875 -172.34375 93.484375 -166.84375 C 99.929688 -161.34375 103.203125 -153.03125 103.296875 -141.90625 C 103.316406 -139.914062 103.210938 -137.796875 102.984375 -135.546875 C 102.753906 -133.304688 102.484375 -131.023438 102.171875 -128.703125 L 101 -121.71875 C 99.894531 -115.394531 98.28125 -110.144531 96.15625 -105.96875 C 94.039062 -101.800781 91.910156 -98.460938 89.765625 -95.953125 C 87.304688 -92.941406 84.671875 -90.675781 81.859375 -89.15625 C 83.546875 -87.6875 85.144531 -85.789062 86.65625 -83.46875 C 88 -81.488281 89.179688 -78.925781 90.203125 -75.78125 C 91.234375 -72.644531 91.769531 -68.914062 91.8125 -64.59375 C 91.84375 -61.269531 91.535156 -57.953125 90.890625 -54.640625 L 88.546875 -40.65625 C 85.859375 -25.695312 80.925781 -15.273438 73.75 -9.390625 C 66.582031 -3.515625 57.6875 -0.53125 47.0625 -0.4375 L 9.96875 -0.09375 Z M 47.578125 -25.34375 C 50.898438 -25.375 53.753906 -26.5625 56.140625 -28.90625 C 58.523438 -31.25 60.273438 -35.582031 61.390625 -41.90625 L 63.984375 -57.125 C 64.304688 -58.613281 64.460938 -59.773438 64.453125 -60.609375 C 64.441406 -61.441406 64.429688 -62.351562 64.421875 -63.34375 C 64.390625 -67.332031 63.53125 -70.3125 61.84375 -72.28125 C 60.164062 -74.257812 58.082031 -75.238281 55.59375 -75.21875 L 49.609375 -75.15625 L 41.359375 -25.28125 Z M 59.09375 -101.40625 C 62.414062 -101.4375 65.269531 -102.625 67.65625 -104.96875 C 70.039062 -107.3125 71.785156 -111.644531 72.890625 -117.96875 L 75.25 -131.9375 C 75.570312 -133.4375 75.726562 -134.597656 75.71875 -135.421875 C 75.707031 -136.253906 75.695312 -137.171875 75.6875 -138.171875 C 75.65625 -142.148438 74.796875 -145.128906 73.109375 -147.109375 C 71.429688 -149.085938 69.347656 -150.066406 66.859375 -150.046875 L 62.125 -150 L 54.109375 -101.359375 Z M 59.09375 -101.40625 "/></g></g><g style="fill:#cbcd5d;fill-opacity:0.502;"><g transform="translate(1494.286887, 816.662337)"><path style="stroke:none" d="M 39 -174.6875 L 92.546875 -175.171875 L 88.046875 -148.984375 L 61.890625 -148.75 L 54.109375 -101.359375 L 77.765625 -101.578125 L 73.28125 -75.375 L 49.609375 -75.15625 L 41.609375 -26.53125 L 69 -26.78125 L 64.75 -0.59375 L 9.96875 -0.09375 Z M 39 -174.6875 "/></g></g><g style="fill:#cbcd5d;fill-opacity:0.502;"><g transform="translate(1559.030671, 816.069555)"><path style="stroke:none" d="M 53.9375 -174.828125 L 91.296875 -175.15625 L 83.421875 -0.765625 L 56.53125 -0.515625 L 58.703125 -35.40625 L 38.03125 -35.203125 L 29.140625 -0.265625 L 1.25 -0.015625 Z M 60.703125 -61.578125 L 64.421875 -118.890625 C 64.867188 -124.535156 65.359375 -129.5625 65.890625 -133.96875 C 66.429688 -138.375 67.019531 -142.488281 67.65625 -146.3125 L 66.65625 -146.3125 C 65.851562 -142.476562 64.890625 -138.351562 63.765625 -133.9375 C 62.648438 -129.53125 61.375 -124.503906 59.9375 -118.859375 L 45.015625 -61.4375 Z M 60.703125 -61.578125 "/></g></g><g style="fill:#cbcd5d;fill-opacity:0.502;"><g transform="translate(1638.71531, 815.339978)"><path style="stroke:none" d="M 39 -174.6875 L 68.140625 -174.953125 C 78.597656 -175.046875 87.046875 -172.34375 93.484375 -166.84375 C 99.929688 -161.34375 103.203125 -153.03125 103.296875 -141.90625 C 103.316406 -139.914062 103.210938 -137.796875 102.984375 -135.546875 C 102.753906 -133.304688 102.484375 -131.023438 102.171875 -128.703125 L 99.359375 -110.5 C 97.773438 -102.007812 95.472656 -95.007812 92.453125 -89.5 C 89.429688 -84 85.773438 -79.734375 81.484375 -76.703125 L 84.671875 -0.78125 L 56.53125 -0.515625 C 56.3125 -5.992188 56.082031 -12.425781 55.84375 -19.8125 C 55.613281 -27.195312 55.425781 -34.332031 55.28125 -41.21875 C 55.132812 -48.113281 54.992188 -54.253906 54.859375 -59.640625 C 54.734375 -65.035156 54.660156 -68.566406 54.640625 -70.234375 L 48.921875 -70.1875 L 37.359375 -0.34375 L 9.96875 -0.09375 Z M 58.15625 -95.171875 C 61.476562 -95.203125 64.328125 -96.390625 66.703125 -98.734375 C 69.085938 -101.085938 70.835938 -105.421875 71.953125 -111.734375 L 75.25 -131.9375 C 75.570312 -133.4375 75.726562 -134.597656 75.71875 -135.421875 C 75.707031 -136.253906 75.695312 -137.171875 75.6875 -138.171875 C 75.65625 -142.148438 74.796875 -145.128906 73.109375 -147.109375 C 71.429688 -149.085938 69.347656 -150.066406 66.859375 -150.046875 L 62.125 -150 L 53.1875 -95.125 Z M 58.15625 -95.171875 "/></g></g><g style="fill:#cbcd5d;fill-opacity:0.502;"><g transform="translate(1722.135118, 814.576203)"><path style="stroke:none" d="M 39 -174.6875 L 66.390625 -174.9375 L 37.359375 -0.34375 L 9.96875 -0.09375 Z M 39 -174.6875 "/></g></g><g style="fill:#cbcd5d;fill-opacity:0.502;"><g transform="translate(1764.467572, 814.188615)"><path style="stroke:none" d="M 53.9375 -174.828125 L 91.296875 -175.15625 L 83.421875 -0.765625 L 56.53125 -0.515625 L 58.703125 -35.40625 L 38.03125 -35.203125 L 29.140625 -0.265625 L 1.25 -0.015625 Z M 60.703125 -61.578125 L 64.421875 -118.890625 C 64.867188 -124.535156 65.359375 -129.5625 65.890625 -133.96875 C 66.429688 -138.375 67.019531 -142.488281 67.65625 -146.3125 L 66.65625 -146.3125 C 65.851562 -142.476562 64.890625 -138.351562 63.765625 -133.9375 C 62.648438 -129.53125 61.375 -124.503906 59.9375 -118.859375 L 45.015625 -61.4375 Z M 60.703125 -61.578125 "/></g></g><g style="fill:#131322;fill-opacity:1;"><g transform="translate(969.312463, 811.507985)"><path style="stroke:none" d="M 31.53125 -174.609375 L 58.421875 -174.859375 L 49.359375 -76.40625 C 48.910156 -71.59375 48.410156 -66.984375 47.859375 -62.578125 C 47.316406 -58.171875 46.898438 -54.222656 46.609375 -50.734375 C 46.140625 -46.578125 45.757812 -42.671875 45.46875 -39.015625 L 46.203125 -39.015625 L 79.59375 -175.0625 L 106.984375 -175.3125 L 93.53125 -39.453125 L 94.265625 -39.453125 C 94.265625 -39.453125 94.503906 -40.578125 94.984375 -42.828125 C 95.460938 -45.078125 96.101562 -47.863281 96.90625 -51.1875 C 97.707031 -54.519531 98.585938 -58.140625 99.546875 -62.046875 C 100.515625 -65.960938 101.476562 -69.664062 102.4375 -73.15625 L 128.15625 -175.5 L 156.046875 -175.75 L 105.84375 -0.96875 L 71.96875 -0.65625 L 80.203125 -80.421875 C 80.503906 -84.421875 80.921875 -88.953125 81.453125 -94.015625 C 81.984375 -99.085938 82.5625 -103.863281 83.1875 -108.34375 C 83.800781 -113.664062 84.421875 -118.898438 85.046875 -124.046875 L 84.296875 -124.046875 C 83.003906 -118.890625 81.722656 -113.648438 80.453125 -108.328125 C 79.328125 -103.835938 78.207031 -99.054688 77.09375 -93.984375 C 75.976562 -88.910156 74.9375 -84.375 73.96875 -80.375 L 54.53125 -0.5 L 19.921875 -0.1875 Z M 31.53125 -174.609375 "/></g></g><g style="fill:#131322;fill-opacity:1;"><g transform="translate(1093.819772, 810.36802)"><path style="stroke:none" d="M 39 -174.6875 L 92.546875 -175.171875 L 88.046875 -148.984375 L 61.890625 -148.75 L 53.625 -98.875 L 77.296875 -99.09375 L 73.0625 -72.890625 L 49.40625 -72.671875 L 37.359375 -0.34375 L 9.96875 -0.09375 Z M 39 -174.6875 "/></g></g><g style="fill:#131322;fill-opacity:1;"><g transform="translate(1154.828319, 809.809438)"><path style="stroke:none" d=""/></g></g><g style="fill:#131322;fill-opacity:1;"><g transform="translate(1184.709997, 809.535847)"><path style="stroke:none" d="M 39 -174.6875 L 68.140625 -174.953125 C 78.597656 -175.046875 87.046875 -172.34375 93.484375 -166.84375 C 99.929688 -161.34375 103.203125 -153.03125 103.296875 -141.90625 C 103.316406 -139.914062 103.210938 -137.796875 102.984375 -135.546875 C 102.753906 -133.304688 102.484375 -131.023438 102.171875 -128.703125 L 101 -121.71875 C 99.894531 -115.394531 98.28125 -110.144531 96.15625 -105.96875 C 94.039062 -101.800781 91.910156 -98.460938 89.765625 -95.953125 C 87.304688 -92.941406 84.671875 -90.675781 81.859375 -89.15625 C 83.546875 -87.6875 85.144531 -85.789062 86.65625 -83.46875 C 88 -81.488281 89.179688 -78.925781 90.203125 -75.78125 C 91.234375 -72.644531 91.769531 -68.914062 91.8125 -64.59375 C 91.84375 -61.269531 91.535156 -57.953125 90.890625 -54.640625 L 88.546875 -40.65625 C 85.859375 -25.695312 80.925781 -15.273438 73.75 -9.390625 C 66.582031 -3.515625 57.6875 -0.53125 47.0625 -0.4375 L 9.96875 -0.09375 Z M 47.578125 -25.34375 C 50.898438 -25.375 53.753906 -26.5625 56.140625 -28.90625 C 58.523438 -31.25 60.273438 -35.582031 61.390625 -41.90625 L 63.984375 -57.125 C 64.304688 -58.613281 64.460938 -59.773438 64.453125 -60.609375 C 64.441406 -61.441406 64.429688 -62.351562 64.421875 -63.34375 C 64.390625 -67.332031 63.53125 -70.3125 61.84375 -72.28125 C 60.164062 -74.257812 58.082031 -75.238281 55.59375 -75.21875 L 49.609375 -75.15625 L 41.359375 -25.28125 Z M 59.09375 -101.40625 C 62.414062 -101.4375 65.269531 -102.625 67.65625 -104.96875 C 70.039062 -107.3125 71.785156 -111.644531 72.890625 -117.96875 L 75.25 -131.9375 C 75.570312 -133.4375 75.726562 -134.597656 75.71875 -135.421875 C 75.707031 -136.253906 75.695312 -137.171875 75.6875 -138.171875 C 75.65625 -142.148438 74.796875 -145.128906 73.109375 -147.109375 C 71.429688 -149.085938 69.347656 -150.066406 66.859375 -150.046875 L 62.125 -150 L 54.109375 -101.359375 Z M 59.09375 -101.40625 "/></g></g><g style="fill:#131322;fill-opacity:1;"><g transform="translate(1266.884794, 808.783471)"><path style="stroke:none" d="M 53.9375 -174.828125 L 91.296875 -175.15625 L 83.421875 -0.765625 L 56.53125 -0.515625 L 58.703125 -35.40625 L 38.03125 -35.203125 L 29.140625 -0.265625 L 1.25 -0.015625 Z M 60.703125 -61.578125 L 64.421875 -118.890625 C 64.867188 -124.535156 65.359375 -129.5625 65.890625 -133.96875 C 66.429688 -138.375 67.019531 -142.488281 67.65625 -146.3125 L 66.65625 -146.3125 C 65.851562 -142.476562 64.890625 -138.351562 63.765625 -133.9375 C 62.648438 -129.53125 61.375 -124.503906 59.9375 -118.859375 L 45.015625 -61.4375 Z M 60.703125 -61.578125 "/></g></g><g style="fill:#131322;fill-opacity:1;"><g transform="translate(1346.569456, 808.053893)"><path style="stroke:none" d="M 39 -174.6875 L 68.140625 -174.953125 C 78.597656 -175.046875 87.046875 -172.34375 93.484375 -166.84375 C 99.929688 -161.34375 103.203125 -153.03125 103.296875 -141.90625 C 103.316406 -139.914062 103.210938 -137.796875 102.984375 -135.546875 C 102.753906 -133.304688 102.484375 -131.023438 102.171875 -128.703125 L 99.359375 -110.5 C 97.773438 -102.007812 95.472656 -95.007812 92.453125 -89.5 C 89.429688 -84 85.773438 -79.734375 81.484375 -76.703125 L 84.671875 -0.78125 L 56.53125 -0.515625 C 56.3125 -5.992188 56.082031 -12.425781 55.84375 -19.8125 C 55.613281 -27.195312 55.425781 -34.332031 55.28125 -41.21875 C 55.132812 -48.113281 54.992188 -54.253906 54.859375 -59.640625 C 54.734375 -65.035156 54.660156 -68.566406 54.640625 -70.234375 L 48.921875 -70.1875 L 37.359375 -0.34375 L 9.96875 -0.09375 Z M 58.15625 -95.171875 C 61.476562 -95.203125 64.328125 -96.390625 66.703125 -98.734375 C 69.085938 -101.085938 70.835938 -105.421875 71.953125 -111.734375 L 75.25 -131.9375 C 75.570312 -133.4375 75.726562 -134.597656 75.71875 -135.421875 C 75.707031 -136.253906 75.695312 -137.171875 75.6875 -138.171875 C 75.65625 -142.148438 74.796875 -145.128906 73.109375 -147.109375 C 71.429688 -149.085938 69.347656 -150.066406 66.859375 -150.046875 L 62.125 -150 L 53.1875 -95.125 Z M 58.15625 -95.171875 "/></g></g><g style="fill:#131322;fill-opacity:1;"><g transform="translate(1429.989286, 807.290117)"><path style="stroke:none" d="M 39 -174.6875 L 68.140625 -174.953125 C 78.597656 -175.046875 87.046875 -172.34375 93.484375 -166.84375 C 99.929688 -161.34375 103.203125 -153.03125 103.296875 -141.90625 C 103.316406 -139.914062 103.210938 -137.796875 102.984375 -135.546875 C 102.753906 -133.304688 102.484375 -131.023438 102.171875 -128.703125 L 101 -121.71875 C 99.894531 -115.394531 98.28125 -110.144531 96.15625 -105.96875 C 94.039062 -101.800781 91.910156 -98.460938 89.765625 -95.953125 C 87.304688 -92.941406 84.671875 -90.675781 81.859375 -89.15625 C 83.546875 -87.6875 85.144531 -85.789062 86.65625 -83.46875 C 88 -81.488281 89.179688 -78.925781 90.203125 -75.78125 C 91.234375 -72.644531 91.769531 -68.914062 91.8125 -64.59375 C 91.84375 -61.269531 91.535156 -57.953125 90.890625 -54.640625 L 88.546875 -40.65625 C 85.859375 -25.695312 80.925781 -15.273438 73.75 -9.390625 C 66.582031 -3.515625 57.6875 -0.53125 47.0625 -0.4375 L 9.96875 -0.09375 Z M 47.578125 -25.34375 C 50.898438 -25.375 53.753906 -26.5625 56.140625 -28.90625 C 58.523438 -31.25 60.273438 -35.582031 61.390625 -41.90625 L 63.984375 -57.125 C 64.304688 -58.613281 64.460938 -59.773438 64.453125 -60.609375 C 64.441406 -61.441406 64.429688 -62.351562 64.421875 -63.34375 C 64.390625 -67.332031 63.53125 -70.3125 61.84375 -72.28125 C 60.164062 -74.257812 58.082031 -75.238281 55.59375 -75.21875 L 49.609375 -75.15625 L 41.359375 -25.28125 Z M 59.09375 -101.40625 C 62.414062 -101.4375 65.269531 -102.625 67.65625 -104.96875 C 70.039062 -107.3125 71.785156 -111.644531 72.890625 -117.96875 L 75.25 -131.9375 C 75.570312 -133.4375 75.726562 -134.597656 75.71875 -135.421875 C 75.707031 -136.253906 75.695312 -137.171875 75.6875 -138.171875 C 75.65625 -142.148438 74.796875 -145.128906 73.109375 -147.109375 C 71.429688 -149.085938 69.347656 -150.066406 66.859375 -150.046875 L 62.125 -150 L 54.109375 -101.359375 Z M 59.09375 -101.40625 "/></g></g><g style="fill:#131322;fill-opacity:1;"><g transform="translate(1512.164084, 806.537741)"><path style="stroke:none" d="M 39 -174.6875 L 92.546875 -175.171875 L 88.046875 -148.984375 L 61.890625 -148.75 L 54.109375 -101.359375 L 77.765625 -101.578125 L 73.28125 -75.375 L 49.609375 -75.15625 L 41.609375 -26.53125 L 69 -26.78125 L 64.75 -0.59375 L 9.96875 -0.09375 Z M 39 -174.6875 "/></g></g><g style="fill:#131322;fill-opacity:1;"><g transform="translate(1576.907868, 805.944959)"><path style="stroke:none" d="M 53.9375 -174.828125 L 91.296875 -175.15625 L 83.421875 -0.765625 L 56.53125 -0.515625 L 58.703125 -35.40625 L 38.03125 -35.203125 L 29.140625 -0.265625 L 1.25 -0.015625 Z M 60.703125 -61.578125 L 64.421875 -118.890625 C 64.867188 -124.535156 65.359375 -129.5625 65.890625 -133.96875 C 66.429688 -138.375 67.019531 -142.488281 67.65625 -146.3125 L 66.65625 -146.3125 C 65.851562 -142.476562 64.890625 -138.351562 63.765625 -133.9375 C 62.648438 -129.53125 61.375 -124.503906 59.9375 -118.859375 L 45.015625 -61.4375 Z M 60.703125 -61.578125 "/></g></g><g style="fill:#131322;fill-opacity:1;"><g transform="translate(1656.592507, 805.215382)"><path style="stroke:none" d="M 39 -174.6875 L 68.140625 -174.953125 C 78.597656 -175.046875 87.046875 -172.34375 93.484375 -166.84375 C 99.929688 -161.34375 103.203125 -153.03125 103.296875 -141.90625 C 103.316406 -139.914062 103.210938 -137.796875 102.984375 -135.546875 C 102.753906 -133.304688 102.484375 -131.023438 102.171875 -128.703125 L 99.359375 -110.5 C 97.773438 -102.007812 95.472656 -95.007812 92.453125 -89.5 C 89.429688 -84 85.773438 -79.734375 81.484375 -76.703125 L 84.671875 -0.78125 L 56.53125 -0.515625 C 56.3125 -5.992188 56.082031 -12.425781 55.84375 -19.8125 C 55.613281 -27.195312 55.425781 -34.332031 55.28125 -41.21875 C 55.132812 -48.113281 54.992188 -54.253906 54.859375 -59.640625 C 54.734375 -65.035156 54.660156 -68.566406 54.640625 -70.234375 L 48.921875 -70.1875 L 37.359375 -0.34375 L 9.96875 -0.09375 Z M 58.15625 -95.171875 C 61.476562 -95.203125 64.328125 -96.390625 66.703125 -98.734375 C 69.085938 -101.085938 70.835938 -105.421875 71.953125 -111.734375 L 75.25 -131.9375 C 75.570312 -133.4375 75.726562 -134.597656 75.71875 -135.421875 C 75.707031 -136.253906 75.695312 -137.171875 75.6875 -138.171875 C 75.65625 -142.148438 74.796875 -145.128906 73.109375 -147.109375 C 71.429688 -149.085938 69.347656 -150.066406 66.859375 -150.046875 L 62.125 -150 L 53.1875 -95.125 Z M 58.15625 -95.171875 "/></g></g><g style="fill:#131322;fill-opacity:1;"><g transform="translate(1740.012315, 804.451607)"><path style="stroke:none" d="M 39 -174.6875 L 66.390625 -174.9375 L 37.359375 -0.34375 L 9.96875 -0.09375 Z M 39 -174.6875 "/></g></g><g style="fill:#131322;fill-opacity:1;"><g transform="translate(1782.344769, 804.064019)"><path style="stroke:none" d="M 53.9375 -174.828125 L 91.296875 -175.15625 L 83.421875 -0.765625 L 56.53125 -0.515625 L 58.703125 -35.40625 L 38.03125 -35.203125 L 29.140625 -0.265625 L 1.25 -0.015625 Z M 60.703125 -61.578125 L 64.421875 -118.890625 C 64.867188 -124.535156 65.359375 -129.5625 65.890625 -133.96875 C 66.429688 -138.375 67.019531 -142.488281 67.65625 -146.3125 L 66.65625 -146.3125 C 65.851562 -142.476562 64.890625 -138.351562 63.765625 -133.9375 C 62.648438 -129.53125 61.375 -124.503906 59.9375 -118.859375 L 45.015625 -61.4375 Z M 60.703125 -61.578125 "/></g></g></g></svg>